<?xml version="1.0" encoding="utf-8" ?><svg xmlns="http://www.w3.org/2000/svg" xmlns:xlink="http://www.w3.org/1999/xlink" width="1014" height="576" viewBox="0 0 1014 576"><path fill="#4ADBE7" transform="scale(1.00039 1)" d="M892.006 22.258C898.208 21.8223 903.811 22.9987 907.388 28.6297C911.648 35.3321 909.443 45.5163 902.491 49.5354C897.428 52.459 892.373 51.3039 887.108 49.8483L874.733 66.4363C853.583 53.117 830.108 51.1338 810.031 67.8394C773.693 98.0775 792.503 158.606 840.526 160.131C844.486 160.256 852.211 157.446 854.558 160.457L854.101 161.371C850.876 163.161 842.168 163.688 838.343 163.405C820.853 162.106 811.343 155.526 800.011 143.238C796.171 147.137 792.083 150.989 788.131 154.797C794.041 160.949 801.758 171.035 807.173 177.833L839.003 217.984L839.393 217.529C849.331 206.004 864.338 202.598 876.668 213.53C892.808 227.846 881.288 257.077 859.268 256.487C850.261 256.245 846.166 252.951 839.971 246.969C838.508 250.688 836.851 256.83 835.598 260.799L828.001 284.423C841.291 289.135 847.973 301.209 841.403 314.701C833.678 330.568 806.858 327.825 802.778 310.291C801.061 302.921 803.243 297.379 807.001 291.155C787.088 282.633 767.536 273.095 747.717 264.343C745.177 263.221 742.845 262.172 740.225 261.233C739.385 262.039 739.227 263.656 738.884 264.985C728.843 290.403 693.876 285.91 691.698 259.175C690.49 244.338 701.823 235.011 716.209 234.116C720.726 218.936 724.927 203.407 729.218 188.132C722.803 182.378 716.803 176.411 710.66 170.369C704.581 173.024 695.251 173.941 690.697 168.263C679.312 154.072 694.531 134.072 710.721 144.896C712.721 146.233 714.242 148.315 715.743 150.151L763.148 151.823C769.043 152.072 779.866 152.228 785.416 153.068L797.963 140.413C787.703 125.248 786.848 115.935 788.603 98.3573C779.708 96.9427 768.481 95.472 759.848 93.6113C757.096 98.8372 753.238 103.747 746.85 104.383C733.411 105.673 724.834 90.1748 733.414 79.6365C738.076 73.9081 749.372 72.9862 754.774 78.0608C758.498 81.5595 759.713 85.7197 759.961 90.6458C767.783 91.3815 781.726 93.7523 789.518 95.2193C792.466 82.9388 796.388 77.2822 804.721 68.1745C798.331 61.7592 789.856 50.2575 783.983 42.8565C767.963 48.7778 761.693 33.1486 773.776 25.2711C777.826 22.6263 786.188 25.8535 787.913 30.2751C789.308 33.8573 787.913 37.129 786.533 40.5422C793.291 49.1954 800.033 57.5624 806.971 66.0634C826.411 49.5641 852.556 48.7628 874.058 61.9357C877.658 57.2654 880.973 52.6489 884.401 47.8568C876.713 37.0361 879.083 26.6623 892.006 22.258ZM719.196 234.191C732.215 237.811 738.375 243.686 740.112 257.409C762.346 267.561 787.231 279.419 809.671 288.75C814.958 285.586 817.838 284.389 824.258 283.883C826.388 277.854 828.368 271.892 830.363 265.819C832.568 258.548 834.826 250.711 837.691 243.698L835.358 239.207L801.563 241.965C797.138 276.562 748.318 245.705 780.293 226.617C774.466 214.642 768.113 200.876 761.881 189.263C753.64 189.852 740.724 189.171 732.279 188.93C729.034 201.053 723.427 222.925 719.196 234.191ZM782.453 229.7C775.868 231.541 771.961 238.313 773.663 244.938C775.373 251.562 782.063 255.606 788.716 254.036C793.148 252.992 796.666 249.635 797.911 245.258C799.163 240.883 797.956 236.172 794.746 232.945C791.536 229.717 786.833 228.476 782.453 229.7ZM698.506 145.534C694.301 146.751 691.075 150.137 690.061 154.396C689.047 158.656 690.401 163.131 693.607 166.114C696.811 169.096 701.372 170.125 705.547 168.806C711.893 166.801 715.447 160.063 713.52 153.691C711.592 147.319 704.899 143.683 698.506 145.534ZM819.728 287.477C813.556 288.654 808.493 293.054 806.468 299.001C804.443 304.947 805.771 311.523 809.933 316.223C814.103 320.922 820.471 323.02 826.621 321.718C835.981 319.732 842.003 310.573 840.113 301.186C838.223 291.799 829.133 285.684 819.728 287.477ZM893.018 25.3009C888.841 25.9918 885.376 28.8994 883.958 32.8907C882.548 36.8821 883.418 41.3257 886.231 44.4899C889.043 47.654 893.356 49.0382 897.481 48.1031C903.608 46.7147 907.523 40.7036 906.316 34.5348C905.108 28.3661 899.221 24.2752 893.018 25.3009ZM746.394 101.006C750.536 100.553 754.114 97.908 755.763 94.0807C757.411 90.2535 756.878 85.8353 754.36 82.5135C751.843 79.1917 747.736 77.4795 743.607 78.0307C737.326 78.8685 732.888 84.6045 733.651 90.8962C734.415 97.188 740.095 101.695 746.394 101.006ZM714.68 237.128C703.158 237.703 694.293 247.528 694.897 259.052C695.501 270.575 705.345 279.419 716.864 278.786C728.344 278.156 737.148 268.351 736.546 256.867C735.944 245.383 726.163 236.553 714.68 237.128ZM779.363 41.2764C783.031 40.5728 785.468 37.0682 784.853 33.3833C784.231 29.6985 780.788 27.1813 777.091 27.7143C774.623 28.0702 772.538 29.7356 771.646 32.0664C770.761 34.3972 771.196 37.0275 772.801 38.9398C774.406 40.852 776.918 41.7462 779.363 41.2764ZM763.643 186.193C768.736 193.859 779.176 216.735 783.503 225.934C793.756 225.858 798.113 229.011 801.608 238.821C805.741 238.33 809.551 237.996 813.698 237.694C820.763 237.01 827.618 236.428 834.721 236.053C834.548 229.92 834.691 226.568 836.986 220.673C830.881 212.858 789.946 159.583 786.008 157.785C778.493 167.288 770.993 176.548 763.643 186.193ZM717.162 153.581C717.523 159.686 717.37 163.111 713.053 168.083C717.569 172.41 726.897 181.915 731.39 185.521C738.739 186.013 751.533 186.522 759.016 186.353C761.956 182.756 764.926 179.161 767.783 175.507C772.951 169.03 778.178 162.331 783.533 156.032C764.941 154.616 745.729 154.966 727.086 153.799C723.895 153.599 720.361 153.557 717.162 153.581ZM862.448 252.821C874.178 251.178 882.338 240.31 880.643 228.584C878.948 216.857 868.051 208.741 856.336 210.486C844.688 212.219 836.633 223.043 838.321 234.697C840.001 246.353 850.786 254.455 862.448 252.821Z"/><path fill="#FEFEFE" transform="scale(1.00039 1)" d="M115.3 464.426C111.235 460.851 111.133 459.54 110.215 454.296C108.652 445.357 107.044 436.414 105.436 427.484L93.6306 360.353C91.4474 347.801 89.2289 335.212 87.1551 322.637C86.9954 320.856 86.0076 315.487 86.7216 314.099C89.4434 308.803 99.1566 309.656 103.247 311.476C107.996 316.676 107.68 322.018 108.847 328.88L113.697 357.618C118.765 387.293 124.351 416.993 129.154 446.699L199.918 446.735C210.688 446.758 221.556 446.565 232.3 447.092C240.196 447.479 239.762 455.569 238.828 461.32C235.945 464.608 233.992 465.626 229.403 465.767C221.439 466.011 213.351 465.49 205.351 465.727C203.429 466.096 197.327 466.057 195.103 466.085C195.394 468.885 195.307 472.675 195.324 475.559L152.131 475.582L152.131 466.205L136.054 466.268C131.628 466.281 118.054 467.164 115.3 464.426Z"/><path fill="#FEFEFE" transform="scale(1.00039 1)" d="M152.602 468.334C166.555 468.153 180.876 468.323 194.857 468.33L194.815 475.099L152.578 475.117L152.602 468.334Z"/><path fill="#FEFEFE" transform="scale(1.00039 1)" d="M215.562 397.396C225.11 393.277 270.545 411.275 279.595 416.945C279.619 427.981 280.756 447.584 279.018 457.845C276.243 474.229 269.317 491.973 266.386 508.556C265.635 512.051 264.244 517.171 263.872 520.621C262.982 523.786 262.292 526.696 261.561 529.894C259.03 530.318 256.403 530.401 253.835 530.542C257.785 509.536 257.44 488.16 261.994 467.209C264.002 455.436 274.795 438.34 259.45 430.862C234.196 418.555 194.216 429.037 170.347 416.234C185.057 414.266 200.065 409.105 212.272 400.421C213.379 399.634 214.909 398.548 215.562 397.396Z"/><path fill="#FEFEFE" transform="scale(1.00039 1)" d="M145.529 414.456C152.455 415.727 157.295 416.059 164.35 416.183C168.583 418.914 171.508 420.726 176.308 422.296C199.764 429.967 239.911 422.8 260.862 435.338C256.897 438.461 254.47 440.787 250.859 444.352C237.713 443.294 224.511 443.389 211.329 443.146C189.863 442.75 169.904 445.888 153.385 429.334C149.907 425.293 147.278 419.449 145.529 414.456Z"/><path fill="#FEFEFE" transform="scale(1.00039 1)" d="M108.615 310.891C116.605 314.29 122.437 319.403 125.412 328.019C131.156 344.655 134.791 366.141 136.805 383.659C137.592 390.503 134.869 406.024 137.407 412.663C139.681 413.029 139.376 412.635 140.857 413.988C142.196 417.815 141.227 422.457 140.791 426.595C137.836 434.312 135.175 434.404 131.599 440.06C130.606 438.279 128.168 422.047 127.621 418.829L116.191 353.298C114.753 344.864 110.833 317.782 108.006 311.481L108.615 310.891Z"/><path fill="#FEFEFE" transform="scale(1.00039 1)" d="M251.964 448.023C256.84 448.051 259.495 448.129 264.321 446.921C259.663 462.818 257.599 470.017 255.727 486.494C254.281 499.225 253.413 518.072 250.801 530.022C248.836 529.336 246.332 528.579 244.622 527.486C245.759 519.413 246.66 505.002 246.004 497.226C244.265 476.586 240.529 470.089 249.883 451.062L251.964 448.023Z"/><path fill="#FEFEFE" transform="scale(1.00039 1)" d="M132.615 443.008C137.671 436.446 143.02 430.972 152.076 431.972C154.864 437.161 165.17 441.508 170.485 443.546C165.731 443.582 134.899 444.286 132.615 443.008Z"/><path fill="#FEFEFE" transform="scale(1.00039 1)" d="M262.309 438.01C263.788 438.825 264.653 442.061 265.256 443.754C262.976 444.254 260.347 444.646 258.022 445.05C257.364 445.027 256.615 444.91 255.951 444.83L255.851 444.176C256.854 442.297 260.524 439.516 262.309 438.01Z"/><path fill="#14151D" fill-opacity="0.047058824" transform="scale(1.00039 1)" d="M265.096 449.858C265.285 453.003 261.054 466.801 259.975 470.258C259.397 464.957 262.458 454.532 265.096 449.858Z"/><path fill="#FEFEFE" transform="scale(1.00039 1)" d="M139.522 409.873C138.997 407.025 139.117 400.283 139.136 397.154C139.252 377.904 142.168 357.022 148.648 338.812C156.553 316.601 170.719 289.488 193.036 278.859C197.448 276.758 205.56 273.469 210.22 275.083C213.285 278.038 224.016 289.463 226.51 291.023C229.158 293.452 229.727 294.073 231.829 297.026C232.286 306.259 229.906 317.263 227.401 326.212C227.02 332.245 227.272 333.432 229.225 339.202C227.329 340.18 224.56 341.253 223.669 343.004L223.814 344.135C214.688 346.76 207.046 348.768 197.704 350.672C200.65 357.998 205.768 374.048 213.102 377.061C214.093 377.468 215.707 377.887 216.79 378.127C214.401 377.971 211.702 377.404 209.898 378.537L209.71 378.989C211.624 379.84 212.635 380.259 214.637 380.846C214.758 383.74 214.828 386.789 215.137 389.658C215.222 391.591 215.692 393.325 214.047 394.709C192.301 413.02 165.868 416.237 139.522 409.873Z"/><path fill="#4ADBE7" transform="scale(1.00039 1)" d="M838.133 68.107C849.766 65.7178 864.646 71.252 872.993 79.6537C881.678 88.3942 885.188 97.7452 885.413 110.042C898.396 112.756 912.683 115.003 925.838 117.439C928.741 112.571 933.871 106.966 939.518 107.215C969.526 108.531 954.721 151.22 930.076 133.807C926.348 131.171 925.276 125.043 925.208 120.497L885.286 113.368C883.141 125.579 880.456 130.303 871.966 139.276L880.951 152.06C885.803 159.007 890.851 166.486 896.056 173.111C902.941 170.617 909.053 171.148 912.046 178.493C917.596 192.085 896.506 197.772 891.503 186.02C890.086 182.697 892.006 178.612 893.573 175.637C886.411 166.437 875.896 150.982 869.506 141.101C854.393 151.881 834.638 153.361 819.556 141.923C790.006 119.514 800.551 73.5836 838.133 68.107ZM845.326 146.717C866.191 145.956 882.541 128.507 881.948 107.63C881.356 86.754 864.038 70.2624 843.166 70.6891C822.053 71.1208 805.336 88.6792 805.936 109.793C806.536 130.907 824.221 147.487 845.326 146.717ZM944.228 134.245C950.618 132.329 954.256 125.598 952.351 119.203C950.438 112.808 943.718 109.165 937.321 111.064C930.908 112.965 927.263 119.707 929.168 126.115C931.081 132.522 937.823 136.163 944.228 134.245ZM902.423 189.527C906.428 189.28 909.488 185.848 909.278 181.836C909.068 177.824 905.663 174.733 901.651 174.911C897.586 175.09 894.451 178.547 894.668 182.608C894.878 186.67 898.366 189.777 902.423 189.527Z"/><path fill="#FEFEFE" transform="scale(1.00039 1)" d="M268.381 378.426L427.177 378.257C427.195 380.859 427.414 387.917 426.88 390.052C422.313 390.443 418.525 390.835 414.001 391.538L413.779 498.661L413.771 532.05C413.771 537.169 414.01 545.368 413.556 550.353L407.008 550.352L406.885 426.594C406.43 423.775 406.546 416.57 406.542 413.48L406.539 390.708C400.096 389.911 380.362 390.383 373.27 390.383L304.794 390.385C294.556 390.379 278.288 390.875 268.618 390.097C268.5 386.271 268.315 382.236 268.381 378.426Z"/><path fill="#FEFEFE" transform="scale(1.00039 1)" d="M268.618 390.097C276.375 389.518 289.531 389.911 297.617 389.93L349.903 389.962L400.521 389.851C407.401 389.838 420.389 389.45 426.88 390.052C422.313 390.443 418.525 390.835 414.001 391.538L413.779 498.661L413.771 532.05C413.771 537.169 414.01 545.368 413.556 550.353L407.008 550.352L406.885 426.594C406.43 423.775 406.546 416.57 406.542 413.48L406.539 390.708C400.096 389.911 380.362 390.383 373.27 390.383L304.794 390.385C294.556 390.379 278.288 390.875 268.618 390.097Z"/><path fill="#FEFEFE" transform="scale(1.00039 1)" d="M230.521 227.265C228.268 225.992 224.009 223.884 224.022 220.908C226.069 220.665 229.889 223.219 230.961 223.036C242.615 221.054 246.625 224.129 256.176 229.84C257.876 230.857 264.661 231.809 267.913 233.171C269.016 234.145 269.463 234.658 270.835 235.243C271.144 233.797 270.559 232.953 270.027 231.352L268.261 229.531L268.393 228.845C283.21 227.948 280.882 251.969 265.321 249.719L263.017 249.449L262.618 249.908C263.746 250.822 264.576 251.482 265.804 252.296C264.51 255.952 262.915 259.56 263.29 263.539C263.584 266.664 265.974 271.122 263.93 272.896C259.231 272.647 259.773 274.411 257.785 277.282C257.427 278.187 257.039 279.093 256.768 280.023C251.343 288.735 246.226 286.682 239.233 280.765C238.196 281.315 237.326 281.737 236.376 282.448C233.305 284.86 231.693 286.355 228.936 289.123L226.51 291.023C224.016 289.463 213.285 278.038 210.22 275.083C211.093 275.394 212.031 275.566 212.939 275.765C214.608 275.367 215.286 273.917 217.22 272.607L217.543 272.393C218.458 271.624 220.407 269.368 221.307 268.379C223.957 268.018 225.622 267.915 228.066 266.741L227.958 265.788C226.631 265.137 223.951 265.846 221.549 265.691L221.107 265.66C216.257 263.237 213.46 259.747 212.971 254.145C212.273 246.134 216.527 241.072 221.39 235.359C216.775 236.402 215.114 237.245 211.105 239.46C215.068 233.414 218.383 232.954 225.093 232.297C222.616 231.025 217.75 229.298 216.757 226.968C218.385 225.626 228.088 226.917 230.521 227.265Z"/><path fill="#FEFEFE" transform="scale(1.00039 1)" d="M233.201 260.951C231.394 258.799 224.839 250.891 232.247 247.557C235.492 246.097 236.326 254.953 239.69 256.867C242.471 256.193 247.54 250.315 249.788 247.957L265.804 252.296C264.51 255.952 262.915 259.56 263.29 263.539C263.584 266.664 265.974 271.122 263.93 272.896C259.231 272.647 259.773 274.411 257.785 277.282C257.427 278.187 257.039 279.093 256.768 280.023C251.343 288.735 246.226 286.682 239.233 280.765C238.196 281.315 237.326 281.737 236.376 282.448C233.305 284.86 231.693 286.355 228.936 289.123L226.51 291.023C224.016 289.463 213.285 278.038 210.22 275.083C211.093 275.394 212.031 275.566 212.939 275.765C214.608 275.367 215.286 273.917 217.22 272.607L217.543 272.393C218.458 271.624 220.407 269.368 221.307 268.379C223.957 268.018 225.622 267.915 228.066 266.741C230.191 265.486 231.718 262.992 233.201 260.951Z"/><path fill="#FEFEFE" transform="scale(1.00039 1)" d="M270.027 231.352L268.261 229.531L268.393 228.845C283.21 227.948 280.882 251.969 265.321 249.719C264.112 249.009 264.094 249.28 263.803 248.294C270.296 243.478 277.273 240.294 270.027 231.352Z"/><path fill="#3999A3" transform="scale(1.00039 1)" d="M385.804 298.915C387.589 298.154 386.834 298.318 389.097 298.706C389.602 299.168 390.037 299.336 390.079 300.054C390.148 301.22 366.173 369.139 363.61 375.01C362.362 375.964 360.28 375.674 358.6 375.63C336.362 375.918 314.117 375.282 291.877 375.525C289.012 375.557 286.152 375.624 283.302 375.271C282.622 374.898 282 374.12 281.437 373.522C281.365 371.914 281.254 372.409 282.484 370.959C286.919 368.768 328.654 369.606 336.301 369.763C336.815 367.646 339.344 361.634 340.261 359.254L349.137 336.193C351.812 329.263 355.148 318.341 357.98 312.211C358.282 310.695 358.753 308.62 360.186 307.836C367.718 303.715 377.668 301.363 385.804 298.915Z"/><path fill="#FEFEFE" transform="scale(1.00039 1)" d="M283.302 375.271C282.622 374.898 282 374.12 281.437 373.522C281.365 371.914 281.254 372.409 282.484 370.959C286.919 368.768 328.654 369.606 336.301 369.763C341.214 369.812 352.426 369.076 356.179 370.71C357.543 372.392 357.149 372.887 355.812 374.717C352.487 375.533 341.689 375.238 337.606 375.224L302.624 375.086C297.316 375.069 288.316 374.825 283.302 375.271Z"/><path fill="#FEFEFE" transform="scale(1.00039 1)" d="M385.804 298.915C387.589 298.154 386.834 298.318 389.097 298.706C389.602 299.168 390.037 299.336 390.079 300.054C390.148 301.22 366.173 369.139 363.61 375.01C362.362 375.964 360.28 375.674 358.6 375.63C358.753 373.864 362.036 365.847 362.953 363.201L382.69 307.699L384.436 302.536L385.804 298.915Z"/><path fill="#4ADBE7" transform="scale(1.00039 1)" d="M384.436 302.536L382.69 307.699C375.642 309.264 366.985 312.689 360.612 313.81C359.974 312.49 360.099 312.159 360.163 310.632C362.123 308.669 381.118 302.951 384.436 302.536Z"/><path fill="#4ADBE7" transform="scale(1.00039 1)" d="M373.432 312.694C374.909 312.674 374.26 312.476 375.466 313.249C373.925 315.668 366.504 314.888 364.577 316.698C365.409 317.218 365.862 317.419 366.466 318.211C365.507 319.406 363.587 320.269 362.073 319.822C362.725 318.386 362.798 318.779 362.609 317.444C360.061 316.449 361.259 317.863 358.681 317.755L358.681 317.044C361.099 314.353 363.44 316.299 365.701 315.505C369.301 314.242 369.126 313.382 373.432 312.694Z"/><path fill="#4ADBE7" transform="scale(1.00039 1)" d="M367.258 335.394L367.632 335.49L368 336.234L367.597 337.046C365.149 338.171 357.734 339.858 354.633 340.705L353.807 340.358L353.866 339.301C355.415 337.922 364.857 335.96 367.258 335.394Z"/><path fill="#4ADBE7" transform="scale(1.00039 1)" d="M365.362 340.867L365.988 340.873L366.308 341.516C364.911 343.114 357.355 344.242 354.961 344.716L353.751 344.525L353.603 343.604C355.705 342.036 362.611 341.251 365.362 340.867Z"/><path fill="#4ADBE7" transform="scale(1.00039 1)" d="M357.397 357.148C357.61 357.137 357.746 357.296 358 357.458L358.582 357.16L358.321 357.255L358.495 357.643L358.278 358.044C356.495 359.41 350.332 359.743 347.861 359.992L346.859 359.779L346.609 359.182C347.996 357.649 355.078 357.36 357.397 357.148Z"/><path fill="#4ADBE7" transform="scale(1.00039 1)" d="M361.573 346.656C361.766 346.635 362.603 346.764 362.853 346.797L363.166 347.513C361.778 349.015 357.789 349.76 355.469 350.456C354.375 350.252 354.388 350.194 353.501 349.6L353.717 348.836C355.897 347.684 359.097 347.18 361.573 346.656Z"/><path fill="#4ADBE7" transform="scale(1.00039 1)" d="M372.913 319.676C373.174 319.934 373.196 320.241 373.33 320.662C371.984 322.249 365.214 323.38 362.913 323.862C362.408 323.141 362.557 323.557 362.724 322.51C364.771 321.416 370.51 320.164 372.913 319.676Z"/><path fill="#4ADBE7" transform="scale(1.00039 1)" d="M354.875 352.169C356.569 351.989 358.435 351.664 359.861 352.503C358.671 353.637 358.231 353.439 356.443 353.872C354.289 354.349 353.719 354.604 352.079 353.559C352.945 352.364 353.18 352.624 354.875 352.169Z"/><path fill="#4ADBE7" transform="scale(1.00039 1)" d="M368.956 324.466L370.16 324.557L370.441 325.117C369.151 326.087 366.199 326.877 364.527 327.415C363.736 327.628 364.14 327.578 363.292 327.374L363.499 326.472C365.516 324.954 366.428 324.919 368.956 324.466Z"/><path fill="#FEFEFE" transform="scale(1.00039 1)" d="M197.704 350.672C207.046 348.768 214.688 346.76 223.814 344.135C224.937 347.903 226.017 351.66 227.323 355.37C245.583 355.233 263.886 356.503 282.161 355.862C290.74 355.561 300.705 351.511 309.514 353.135C313.806 353.926 319.982 359.482 323.424 362.301L323.754 363.336L323.386 364.036C321.579 364.968 321.265 365.098 319.954 366.712C319.223 367.012 317.976 367.568 317.304 366.983C303.025 354.577 297.496 370.647 282.709 365.536C266.438 373.229 234.712 378.737 216.79 378.127C215.707 377.887 214.093 377.468 213.102 377.061C205.768 374.048 200.65 357.998 197.704 350.672Z"/><path fill="#4ADBE7" transform="scale(1.00039 1)" d="M339.02 211.617C342.139 212.658 359.781 222.933 363.197 224.876L363.644 253.883C356.191 257.283 347.145 262.854 339.379 266.802C337.371 266.311 318.912 255.638 315.042 253.683L314.937 225.188C322.833 220.587 331.037 216.097 339.02 211.617ZM319.143 227.322C319.22 235.29 319.375 243.384 319.19 251.336C321.662 253.067 335.652 260.417 339.16 262.397L359.295 251.292C359.27 243.322 359.178 235.232 359.303 227.273C357.136 226.094 340.129 216.602 338.872 216.495C332.334 220.063 325.604 223.646 319.143 227.322Z"/><path fill="#4ADBE7" transform="scale(1.00039 1)" d="M338.572 221.917C340.181 221.99 351.739 228.533 354.432 229.802C354.55 236.128 354.532 242.499 354.554 248.829C349.723 251.228 344.578 254.115 339.79 256.677C337.735 256.643 326.341 249.885 323.845 248.48L323.821 230.491C328.621 227.607 333.708 224.758 338.572 221.917ZM328.132 232.829L327.985 246.311C331.688 248.272 335.527 250.243 339.183 252.268L350.428 246.137C350.392 241.65 350.305 237.068 350.335 232.591C348.115 231.326 341.164 227.179 339.18 226.396C336.136 228.121 330.844 230.927 328.132 232.829Z"/><path fill="#FEFEFE" transform="scale(1.00039 1)" d="M282.147 392.853L289.014 392.801L288.987 550.407L282.415 550.385L282.147 392.853Z"/><path fill="#4ADBE7" transform="scale(1.00039 1)" d="M653.605 218.174L661.557 218.171C661.324 231.881 661.534 246.101 661.585 259.855C659.245 259.937 657.52 260.048 655.198 259.76C654.472 258.706 654.399 258.304 653.984 257.072C648.114 257.198 649.602 262.926 637.666 259.292C618.772 249.674 631.981 219.026 653.569 232.894L653.605 218.174ZM647.483 253.7C650.701 252.913 653.239 250.442 654.115 247.246C654.99 244.051 654.065 240.632 651.698 238.313C649.331 235.995 645.894 235.142 642.718 236.084C637.969 237.493 635.212 242.435 636.505 247.219C637.799 252.002 642.671 254.879 647.483 253.7Z"/><path fill="#4ADBE7" transform="scale(1.00039 1)" d="M522.42 218.045L529.987 218.041L529.944 233.147C547.316 221.58 562.348 240.451 550.886 256.007C541.312 264.905 534.527 257.059 529.882 257.49L528.882 259.324C526.901 260.114 524.797 259.895 522.656 259.837C522.622 245.919 522.651 231.958 522.42 218.045ZM540.64 253.887C545.401 252.884 548.524 248.303 547.717 243.503C546.91 238.703 542.461 235.395 537.634 236.005C534.331 236.423 531.521 238.616 530.314 241.721C529.108 244.825 529.699 248.34 531.854 250.88C534.009 253.419 537.381 254.573 540.64 253.887Z"/><path fill="#4ADBE7" transform="scale(1.00039 1)" d="M378.457 220.029L385.606 220.066C390.557 226.707 394.197 233.953 398.972 240.742L412.084 220.156L419.7 220.101L419.443 259.816L411.887 259.874L411.911 245.908L411.785 233.626C407.434 239.731 404.53 245.429 399.114 251.162C394.479 246.805 389.86 239.18 386.128 233.731C385.809 241.505 386.301 251.881 386.429 259.856L378.526 259.886L378.457 220.029Z"/><path fill="#FEFEFE" transform="scale(1.00039 1)" d="M171.006 496.895L175.728 497.06C177.035 497.941 178.282 498.785 179.632 499.601C179.622 506.92 179.584 514.158 179.443 521.475C184.389 523.223 214.87 534.249 216.826 536.53L216.916 537.932C212.861 539.657 183.428 531.451 176.93 529.943C176.341 532.912 176.152 536.067 174.031 538.087C170.531 538.424 170.305 532.528 169.538 529.862C162.988 531.486 134.81 539.026 130.153 537.765L129.908 536.731L130.435 537.802L129.694 536.952C132.6 533.616 161.228 523.787 167.365 521.532C166.893 514.306 166.901 507.746 166.899 500.5C167.104 497.967 169.329 499.561 171.006 496.895Z"/><path fill="#FEFEFE" transform="scale(1.00039 1)" d="M134.023 553.115C141.805 553.49 151.93 553.218 159.867 553.218L212.44 553.143L371.639 553.253L420.814 553.27C425.113 553.27 445.686 552.431 447.987 554.432C446.149 556.108 424.79 555.469 421.351 555.469L372.209 555.483L149.89 555.557L85.6566 555.565C80.5592 555.566 75.4424 555.587 70.3466 555.591C67.0832 555.594 59.5313 556.754 57.3446 553.915C59.5515 552.774 125.178 553.277 134.023 553.115Z"/><path fill="#4ADBE7" transform="scale(1.00039 1)" d="M442.069 229.598C454.114 230.303 457.343 236.143 458.359 247.534C450.133 247.6 441.921 247.483 433.695 247.391C438.216 256.075 443.545 255.496 451.783 251.871C453.194 252.696 453.745 253.344 454.894 254.473C455.755 257.518 448.761 259.586 446.449 259.986C423.755 263.914 418.592 231.397 442.069 229.598ZM433.753 242.608L445.668 242.573C447.962 242.569 448.627 242.96 450.276 241.931C451.639 236.892 443.428 235.349 439.515 235.906C435.892 238.162 435.464 238.696 433.753 242.608Z"/><path fill="#4ADBE7" transform="scale(1.00039 1)" d="M495.412 229.994C517.957 228.457 514.495 242.615 514.345 259.881C512.24 259.922 510.817 259.931 508.726 259.739C507.822 259.095 507.795 259.033 507.145 258.098L506.985 257.863C499.03 258.26 499.024 263.137 489.364 257.911C486.826 255.336 483.962 249.326 487.164 246.331C492.201 241.619 499.846 242.313 506.207 241.983C506.803 239.689 505.69 237.044 503.266 236.267C498.391 234.705 494.324 236.751 490.069 238.875C486.946 232.033 489.174 232.049 495.412 229.994ZM503.534 253.814C505.216 252.677 505.711 252.429 506.914 250.768L507.057 249.489C504.68 246.527 499.863 247.158 496.364 247.252C494.689 248.127 494.242 248.278 493.189 249.94C492.913 254.9 500.113 254.811 503.534 253.814Z"/><path fill="#FEFEFE" transform="scale(1.00039 1)" d="M243.815 531.188C244.988 530.932 246.29 531.214 247.285 531.875C252.691 535.464 260.918 530.944 265.284 534.445C270.854 538.51 273.118 539.756 279.523 542.31L279.577 550.415L258.259 550.425C254.263 550.45 248.41 550.625 244.54 550.067C238.074 549.136 242.751 535.017 243.815 531.188Z"/><path fill="#FEFEFE" transform="scale(1.00039 1)" d="M305.567 530.893C309.084 534.031 311.408 536.162 315.579 538.454C320.997 541.432 333.341 542.674 336.53 547.828C336.498 548.5 336.661 548.773 336.13 549.254C333.869 551.303 301.04 550.367 295.705 550.368C294.562 548.875 292.947 546.629 291.661 545.38C291.979 543.182 291.888 537.155 291.905 534.661C298.021 534.514 300.367 533.974 305.567 530.893Z"/><path fill="#4ADBE7" transform="scale(1.00039 1)" d="M560.653 229.876L568.054 229.834C568.041 233.887 566.812 248.647 570.08 251.74C575.733 257.092 582.55 252.584 582.796 244.945C582.944 240.348 582.871 234.912 582.768 229.905L590.2 230.012L590.239 239.222C590.215 246.215 590.282 252.933 590.469 259.923C588.622 259.984 586.078 260.235 584.414 259.624C583.879 258.658 583.82 258.635 583.045 257.822C580.899 257.584 577.219 260.444 573.675 260.525C557.638 260.893 560.579 241.036 560.653 229.876Z"/><path fill="#FEFEFE" transform="scale(1.00039 1)" d="M291.661 545.38C290.689 541.003 291.866 465.981 291.398 466.508C292.237 467.672 292.525 467.874 292.637 469.237L298.945 504.199C300.189 510.858 302.005 521.077 303.925 527.429C304.342 528.934 304.419 529.875 305.567 530.893C300.367 533.974 298.021 534.514 291.905 534.661C291.888 537.155 291.979 543.182 291.661 545.38Z"/><path fill="#4ADBE7" transform="scale(1.00039 1)" d="M465.919 223.01L473.566 222.957L473.522 229.957L481.795 229.934L481.834 236.195L473.545 236.221C473.496 240.619 472.934 248.656 474.718 252.302C478.663 255.586 479.951 250.441 483.235 257.659L483.148 258.095C480.66 261.167 472.034 260.805 469.425 258.712C463.69 254.113 467.015 242.702 465.67 236.516C464.48 236.299 463.354 236.069 462.172 235.812C460.594 234.34 459.991 231.847 461.489 230.223C463.664 230.318 463.881 230.475 465.322 229.325C466.367 227.543 466.011 225.134 465.919 223.01Z"/><path fill="#4ADBE7" transform="scale(1.00039 1)" d="M615.813 218.333L622.533 218.242C622.487 223.002 622.913 258.525 621.964 259.909L614.854 259.916L614.789 233.637C614.768 229.67 614.531 222.604 614.956 218.872L615.813 218.333Z"/><path fill="#4ADBE7" transform="scale(1.00039 1)" d="M598.514 229.993L606.339 229.993L606.315 259.816L598.522 259.815L598.514 229.993Z"/><path fill="#FEFEFE" transform="scale(1.00039 1)" d="M278.691 471.473C280.396 473.349 279.562 509.365 279.556 514.302C278.65 512.574 277.713 510.469 276.863 508.679C275.654 505.461 273.339 500.749 271.865 497.502C273.964 489.962 276.13 478.208 278.691 471.473Z"/><path fill="#FEFEFE" transform="scale(1.00039 1)" d="M130.705 541.229C133.796 540.529 136.864 542.487 137.533 545.586C138.203 548.684 136.217 551.734 133.113 552.374C130.051 553.006 127.051 551.051 126.391 547.995C125.731 544.938 127.655 541.919 130.705 541.229Z"/><path fill="#FEFEFE" transform="scale(1.00039 1)" d="M213.492 541.208C216.533 540.587 219.503 542.543 220.135 545.582C220.767 548.622 218.822 551.599 215.786 552.243C212.734 552.889 209.738 550.932 209.103 547.877C208.468 544.822 210.436 541.832 213.492 541.208Z"/><path fill="#FEFEFE" transform="scale(1.00039 1)" d="M173.011 541.246C175.06 541.186 176.98 542.248 178.021 544.015C179.062 545.782 179.06 547.975 178.015 549.74C176.97 551.506 175.048 552.562 172.998 552.498C169.957 552.404 167.543 549.909 167.546 546.866C167.55 543.823 169.97 541.334 173.011 541.246Z"/><path fill="#FEFEFE" transform="scale(1.00039 1)" d="M170.776 477.766L175.86 477.83C175.987 483.544 176.308 491.511 175.728 497.06L171.006 496.895C170.679 490.544 170.764 484.128 170.776 477.766Z"/><path fill="#4ADBE7" transform="scale(1.00039 1)" d="M602.043 216.356C604.534 216.049 606.829 217.745 607.27 220.217C607.709 222.688 606.139 225.071 603.696 225.643C601.994 226.041 600.212 225.467 599.063 224.15C597.914 222.833 597.586 220.99 598.21 219.357C598.834 217.724 600.309 216.57 602.043 216.356Z"/></svg>